<?xml version="1.0" encoding="utf-8"?>
<!-- Generator: Adobe Illustrator 17.0.0, SVG Export Plug-In . SVG Version: 6.00 Build 0)  -->
<!DOCTYPE svg PUBLIC "-//W3C//DTD SVG 1.1//EN" "http://www.w3.org/Graphics/SVG/1.1/DTD/svg11.dtd">
<svg version="1.1" id="Layer_1" xmlns="http://www.w3.org/2000/svg" xmlns:xlink="http://www.w3.org/1999/xlink" x="0px" y="0px"
	 width="330px" height="330px" viewBox="0 0 330 330" enable-background="new 0 0 330 330" xml:space="preserve">
<g opacity="0.2">
	<g>
		<g>
			<line fill="none" stroke="#23634E" stroke-miterlimit="10" x1="149.319" y1="40.197" x2="145.048" y2="6.144"/>
			<line fill="none" stroke="#23634E" stroke-miterlimit="10" x1="65.649" y1="87.824" x2="38.559" y2="66.761"/>
			<line fill="none" stroke="#23634E" stroke-miterlimit="10" x1="40.197" y1="180.681" x2="6.144" y2="184.952"/>
			<line fill="none" stroke="#23634E" stroke-miterlimit="10" x1="87.824" y1="264.351" x2="66.761" y2="291.441"/>
			<line fill="none" stroke="#23634E" stroke-miterlimit="10" x1="180.681" y1="289.803" x2="184.952" y2="323.856"/>
			<line fill="none" stroke="#23634E" stroke-miterlimit="10" x1="264.351" y1="242.176" x2="291.441" y2="263.239"/>
			<line fill="none" stroke="#23634E" stroke-miterlimit="10" x1="289.803" y1="149.319" x2="323.856" y2="145.048"/>
			<line fill="none" stroke="#23634E" stroke-miterlimit="10" x1="242.176" y1="65.649" x2="263.239" y2="38.559"/>
			<line fill="none" stroke="#23634E" stroke-miterlimit="10" x1="117.548" y1="48.505" x2="104.617" y2="16.734"/>
			<line fill="none" stroke="#23634E" stroke-miterlimit="10" x1="49.09" y1="116.144" x2="17.436" y2="102.862"/>
			<line fill="none" stroke="#23634E" stroke-miterlimit="10" x1="48.505" y1="212.452" x2="16.734" y2="225.383"/>
			<line fill="none" stroke="#23634E" stroke-miterlimit="10" x1="116.144" y1="280.91" x2="102.862" y2="312.564"/>
			<line fill="none" stroke="#23634E" stroke-miterlimit="10" x1="212.452" y1="281.495" x2="225.383" y2="313.266"/>
			<line fill="none" stroke="#23634E" stroke-miterlimit="10" x1="280.91" y1="213.856" x2="312.564" y2="227.138"/>
			<line fill="none" stroke="#23634E" stroke-miterlimit="10" x1="281.495" y1="117.548" x2="313.266" y2="104.617"/>
			<line fill="none" stroke="#23634E" stroke-miterlimit="10" x1="213.856" y1="49.09" x2="227.138" y2="17.436"/>
			<line fill="none" stroke="#23634E" stroke-miterlimit="10" x1="88.995" y1="64.713" x2="68.282" y2="37.388"/>
			<line fill="none" stroke="#23634E" stroke-miterlimit="10" x1="40.372" y1="147.856" x2="6.378" y2="143.117"/>
			<line fill="none" stroke="#23634E" stroke-miterlimit="10" x1="64.713" y1="241.005" x2="37.388" y2="261.718"/>
			<line fill="none" stroke="#23634E" stroke-miterlimit="10" x1="147.856" y1="289.628" x2="143.117" y2="323.622"/>
			<line fill="none" stroke="#23634E" stroke-miterlimit="10" x1="241.005" y1="265.287" x2="261.718" y2="292.612"/>
			<line fill="none" stroke="#23634E" stroke-miterlimit="10" x1="289.628" y1="182.144" x2="323.622" y2="186.883"/>
			<line fill="none" stroke="#23634E" stroke-miterlimit="10" x1="265.287" y1="88.995" x2="292.612" y2="68.282"/>
			<line fill="none" stroke="#23634E" stroke-miterlimit="10" x1="182.144" y1="40.372" x2="186.883" y2="6.378"/>
		</g>
	</g>
	<circle fill="none" stroke="#23634E" stroke-miterlimit="10" cx="165.878" cy="165.702" r="118.835"/>
	<g>
		<g>
			<line fill="none" stroke="#23634E" stroke-miterlimit="10" x1="165.761" y1="38.968" x2="165.819" y2="29.606"/>
			<line fill="none" stroke="#23634E" stroke-miterlimit="10" x1="76.415" y1="75.362" x2="69.862" y2="68.691"/>
			<line fill="none" stroke="#23634E" stroke-miterlimit="10" x1="38.968" y1="164.239" x2="29.606" y2="164.181"/>
			<line fill="none" stroke="#23634E" stroke-miterlimit="10" x1="75.362" y1="253.585" x2="68.691" y2="260.138"/>
			<line fill="none" stroke="#23634E" stroke-miterlimit="10" x1="164.239" y1="291.032" x2="164.181" y2="300.394"/>
			<line fill="none" stroke="#23634E" stroke-miterlimit="10" x1="253.585" y1="254.638" x2="260.138" y2="261.309"/>
			<line fill="none" stroke="#23634E" stroke-miterlimit="10" x1="291.032" y1="165.761" x2="300.394" y2="165.819"/>
			<line fill="none" stroke="#23634E" stroke-miterlimit="10" x1="254.638" y1="76.415" x2="261.309" y2="69.862"/>
			<line fill="none" stroke="#23634E" stroke-miterlimit="10" x1="133.112" y1="43.064" x2="130.713" y2="33.995"/>
			<line fill="none" stroke="#23634E" stroke-miterlimit="10" x1="56.229" y1="101.34" x2="48.154" y2="96.601"/>
			<line fill="none" stroke="#23634E" stroke-miterlimit="10" x1="43.064" y1="196.888" x2="33.995" y2="199.287"/>
			<line fill="none" stroke="#23634E" stroke-miterlimit="10" x1="101.34" y1="273.771" x2="96.601" y2="281.846"/>
			<line fill="none" stroke="#23634E" stroke-miterlimit="10" x1="196.888" y1="286.936" x2="199.287" y2="296.005"/>
			<line fill="none" stroke="#23634E" stroke-miterlimit="10" x1="273.771" y1="228.66" x2="281.846" y2="233.399"/>
			<line fill="none" stroke="#23634E" stroke-miterlimit="10" x1="286.936" y1="133.112" x2="296.005" y2="130.713"/>
			<line fill="none" stroke="#23634E" stroke-miterlimit="10" x1="228.66" y1="56.229" x2="233.399" y2="48.154"/>
			<line fill="none" stroke="#23634E" stroke-miterlimit="10" x1="102.628" y1="55.468" x2="98.005" y2="47.335"/>
			<line fill="none" stroke="#23634E" stroke-miterlimit="10" x1="43.473" y1="131.649" x2="34.404" y2="129.191"/>
			<line fill="none" stroke="#23634E" stroke-miterlimit="10" x1="55.468" y1="227.372" x2="47.335" y2="231.995"/>
			<line fill="none" stroke="#23634E" stroke-miterlimit="10" x1="131.649" y1="286.527" x2="129.191" y2="295.596"/>
			<line fill="none" stroke="#23634E" stroke-miterlimit="10" x1="227.372" y1="274.532" x2="231.995" y2="282.665"/>
			<line fill="none" stroke="#23634E" stroke-miterlimit="10" x1="286.527" y1="198.351" x2="295.596" y2="200.809"/>
			<line fill="none" stroke="#23634E" stroke-miterlimit="10" x1="274.532" y1="102.628" x2="282.665" y2="98.005"/>
			<line fill="none" stroke="#23634E" stroke-miterlimit="10" x1="198.351" y1="43.473" x2="200.809" y2="34.404"/>
		</g>
		<g>
			<line fill="none" stroke="#23634E" stroke-miterlimit="10" x1="157.511" y1="39.202" x2="156.926" y2="29.84"/>
			<line fill="none" stroke="#23634E" stroke-miterlimit="10" x1="70.739" y1="81.33" x2="63.718" y2="75.128"/>
			<line fill="none" stroke="#23634E" stroke-miterlimit="10" x1="39.202" y1="172.489" x2="29.84" y2="173.074"/>
			<line fill="none" stroke="#23634E" stroke-miterlimit="10" x1="81.33" y1="259.261" x2="75.128" y2="266.282"/>
			<line fill="none" stroke="#23634E" stroke-miterlimit="10" x1="172.489" y1="290.798" x2="173.074" y2="300.16"/>
			<line fill="none" stroke="#23634E" stroke-miterlimit="10" x1="259.261" y1="248.67" x2="266.282" y2="254.872"/>
			<line fill="none" stroke="#23634E" stroke-miterlimit="10" x1="290.798" y1="157.511" x2="300.16" y2="156.926"/>
			<line fill="none" stroke="#23634E" stroke-miterlimit="10" x1="248.67" y1="70.739" x2="254.872" y2="63.718"/>
			<line fill="none" stroke="#23634E" stroke-miterlimit="10" x1="125.213" y1="45.404" x2="122.229" y2="36.511"/>
			<line fill="none" stroke="#23634E" stroke-miterlimit="10" x1="52.309" y1="108.596" x2="43.941" y2="104.383"/>
			<line fill="none" stroke="#23634E" stroke-miterlimit="10" x1="45.404" y1="204.787" x2="36.511" y2="207.771"/>
			<line fill="none" stroke="#23634E" stroke-miterlimit="10" x1="108.596" y1="277.691" x2="104.383" y2="286.059"/>
			<line fill="none" stroke="#23634E" stroke-miterlimit="10" x1="204.787" y1="284.596" x2="207.771" y2="293.489"/>
			<line fill="none" stroke="#23634E" stroke-miterlimit="10" x1="277.691" y1="221.404" x2="286.059" y2="225.617"/>
			<line fill="none" stroke="#23634E" stroke-miterlimit="10" x1="284.596" y1="125.213" x2="293.489" y2="122.229"/>
			<line fill="none" stroke="#23634E" stroke-miterlimit="10" x1="221.404" y1="52.309" x2="225.617" y2="43.941"/>
			<line fill="none" stroke="#23634E" stroke-miterlimit="10" x1="95.606" y1="59.798" x2="90.457" y2="51.957"/>
			<line fill="none" stroke="#23634E" stroke-miterlimit="10" x1="41.543" y1="139.665" x2="32.356" y2="137.793"/>
			<line fill="none" stroke="#23634E" stroke-miterlimit="10" x1="59.798" y1="234.394" x2="51.957" y2="239.543"/>
			<line fill="none" stroke="#23634E" stroke-miterlimit="10" x1="139.665" y1="288.457" x2="137.793" y2="297.644"/>
			<line fill="none" stroke="#23634E" stroke-miterlimit="10" x1="234.394" y1="270.202" x2="239.543" y2="278.043"/>
			<line fill="none" stroke="#23634E" stroke-miterlimit="10" x1="288.457" y1="190.335" x2="297.644" y2="192.207"/>
			<line fill="none" stroke="#23634E" stroke-miterlimit="10" x1="270.202" y1="95.606" x2="278.043" y2="90.457"/>
			<line fill="none" stroke="#23634E" stroke-miterlimit="10" x1="190.335" y1="41.543" x2="192.207" y2="32.356"/>
		</g>
		<g>
			<line fill="none" stroke="#23634E" stroke-miterlimit="10" x1="158.915" y1="62.723" x2="158.447" y2="55.117"/>
			<line fill="none" stroke="#23634E" stroke-miterlimit="10" x1="88.41" y1="97.011" x2="82.676" y2="91.92"/>
			<line fill="none" stroke="#23634E" stroke-miterlimit="10" x1="62.723" y1="171.085" x2="55.117" y2="171.553"/>
			<line fill="none" stroke="#23634E" stroke-miterlimit="10" x1="97.011" y1="241.59" x2="91.92" y2="247.324"/>
			<line fill="none" stroke="#23634E" stroke-miterlimit="10" x1="171.085" y1="267.277" x2="171.553" y2="274.883"/>
			<line fill="none" stroke="#23634E" stroke-miterlimit="10" x1="241.59" y1="232.989" x2="247.324" y2="238.08"/>
			<line fill="none" stroke="#23634E" stroke-miterlimit="10" x1="267.277" y1="158.915" x2="274.883" y2="158.447"/>
			<line fill="none" stroke="#23634E" stroke-miterlimit="10" x1="232.989" y1="88.41" x2="238.08" y2="82.676"/>
			<line fill="none" stroke="#23634E" stroke-miterlimit="10" x1="132.644" y1="67.814" x2="130.245" y2="60.559"/>
			<line fill="none" stroke="#23634E" stroke-miterlimit="10" x1="73.372" y1="119.128" x2="66.585" y2="115.734"/>
			<line fill="none" stroke="#23634E" stroke-miterlimit="10" x1="67.814" y1="197.356" x2="60.559" y2="199.755"/>
			<line fill="none" stroke="#23634E" stroke-miterlimit="10" x1="119.128" y1="256.628" x2="115.734" y2="263.415"/>
			<line fill="none" stroke="#23634E" stroke-miterlimit="10" x1="197.356" y1="262.186" x2="199.755" y2="269.441"/>
			<line fill="none" stroke="#23634E" stroke-miterlimit="10" x1="256.628" y1="210.872" x2="263.415" y2="214.266"/>
			<line fill="none" stroke="#23634E" stroke-miterlimit="10" x1="262.186" y1="132.644" x2="269.441" y2="130.245"/>
			<line fill="none" stroke="#23634E" stroke-miterlimit="10" x1="210.872" y1="73.372" x2="214.266" y2="66.585"/>
			<line fill="none" stroke="#23634E" stroke-miterlimit="10" x1="108.596" y1="79.457" x2="104.383" y2="73.138"/>
			<line fill="none" stroke="#23634E" stroke-miterlimit="10" x1="64.654" y1="144.404" x2="57.223" y2="142.883"/>
			<line fill="none" stroke="#23634E" stroke-miterlimit="10" x1="79.457" y1="221.404" x2="73.138" y2="225.617"/>
			<line fill="none" stroke="#23634E" stroke-miterlimit="10" x1="144.404" y1="265.346" x2="142.883" y2="272.777"/>
			<line fill="none" stroke="#23634E" stroke-miterlimit="10" x1="221.404" y1="250.543" x2="225.617" y2="256.862"/>
			<line fill="none" stroke="#23634E" stroke-miterlimit="10" x1="265.346" y1="185.596" x2="272.777" y2="187.117"/>
			<line fill="none" stroke="#23634E" stroke-miterlimit="10" x1="250.543" y1="108.596" x2="256.862" y2="104.383"/>
			<line fill="none" stroke="#23634E" stroke-miterlimit="10" x1="185.596" y1="64.654" x2="187.117" y2="57.223"/>
		</g>
		<g>
			<line fill="none" stroke="#23634E" stroke-miterlimit="10" x1="149.319" y1="39.963" x2="148.149" y2="30.66"/>
			<line fill="none" stroke="#23634E" stroke-miterlimit="10" x1="65.473" y1="87.707" x2="58.101" y2="81.915"/>
			<line fill="none" stroke="#23634E" stroke-miterlimit="10" x1="39.963" y1="180.681" x2="30.66" y2="181.851"/>
			<line fill="none" stroke="#23634E" stroke-miterlimit="10" x1="87.707" y1="264.527" x2="81.915" y2="271.899"/>
			<line fill="none" stroke="#23634E" stroke-miterlimit="10" x1="180.681" y1="290.037" x2="181.851" y2="299.34"/>
			<line fill="none" stroke="#23634E" stroke-miterlimit="10" x1="264.527" y1="242.293" x2="271.899" y2="248.085"/>
			<line fill="none" stroke="#23634E" stroke-miterlimit="10" x1="290.037" y1="149.319" x2="299.34" y2="148.149"/>
			<line fill="none" stroke="#23634E" stroke-miterlimit="10" x1="242.293" y1="65.473" x2="248.085" y2="58.101"/>
			<line fill="none" stroke="#23634E" stroke-miterlimit="10" x1="117.489" y1="48.271" x2="113.92" y2="39.612"/>
			<line fill="none" stroke="#23634E" stroke-miterlimit="10" x1="48.856" y1="116.085" x2="40.197" y2="112.457"/>
			<line fill="none" stroke="#23634E" stroke-miterlimit="10" x1="48.271" y1="212.511" x2="39.612" y2="216.08"/>
			<line fill="none" stroke="#23634E" stroke-miterlimit="10" x1="116.085" y1="281.144" x2="112.457" y2="289.803"/>
			<line fill="none" stroke="#23634E" stroke-miterlimit="10" x1="212.511" y1="281.729" x2="216.08" y2="290.388"/>
			<line fill="none" stroke="#23634E" stroke-miterlimit="10" x1="281.144" y1="213.915" x2="289.803" y2="217.543"/>
			<line fill="none" stroke="#23634E" stroke-miterlimit="10" x1="281.729" y1="117.489" x2="290.388" y2="113.92"/>
			<line fill="none" stroke="#23634E" stroke-miterlimit="10" x1="213.915" y1="48.856" x2="217.543" y2="40.197"/>
			<line fill="none" stroke="#23634E" stroke-miterlimit="10" x1="88.878" y1="64.537" x2="83.202" y2="57.106"/>
			<line fill="none" stroke="#23634E" stroke-miterlimit="10" x1="40.138" y1="147.798" x2="30.894" y2="146.511"/>
			<line fill="none" stroke="#23634E" stroke-miterlimit="10" x1="64.537" y1="241.122" x2="57.106" y2="246.798"/>
			<line fill="none" stroke="#23634E" stroke-miterlimit="10" x1="147.798" y1="289.862" x2="146.511" y2="299.106"/>
			<line fill="none" stroke="#23634E" stroke-miterlimit="10" x1="241.122" y1="265.463" x2="246.798" y2="272.894"/>
			<line fill="none" stroke="#23634E" stroke-miterlimit="10" x1="289.862" y1="182.202" x2="299.106" y2="183.489"/>
			<line fill="none" stroke="#23634E" stroke-miterlimit="10" x1="265.463" y1="88.878" x2="272.894" y2="83.202"/>
			<line fill="none" stroke="#23634E" stroke-miterlimit="10" x1="182.202" y1="40.138" x2="183.489" y2="30.894"/>
		</g>
		<g>
			<line fill="none" stroke="#23634E" stroke-miterlimit="10" x1="141.128" y1="41.25" x2="139.372" y2="32.064"/>
			<line fill="none" stroke="#23634E" stroke-miterlimit="10" x1="60.617" y1="94.378" x2="52.894" y2="89.112"/>
			<line fill="none" stroke="#23634E" stroke-miterlimit="10" x1="41.25" y1="188.872" x2="32.064" y2="190.628"/>
			<line fill="none" stroke="#23634E" stroke-miterlimit="10" x1="94.378" y1="269.383" x2="89.112" y2="277.106"/>
			<line fill="none" stroke="#23634E" stroke-miterlimit="10" x1="188.872" y1="288.75" x2="190.628" y2="297.936"/>
			<line fill="none" stroke="#23634E" stroke-miterlimit="10" x1="269.383" y1="235.622" x2="277.106" y2="240.888"/>
			<line fill="none" stroke="#23634E" stroke-miterlimit="10" x1="288.75" y1="141.128" x2="297.936" y2="139.372"/>
			<line fill="none" stroke="#23634E" stroke-miterlimit="10" x1="235.622" y1="60.617" x2="240.888" y2="52.894"/>
			<line fill="none" stroke="#23634E" stroke-miterlimit="10" x1="109.941" y1="51.606" x2="105.846" y2="43.239"/>
			<line fill="none" stroke="#23634E" stroke-miterlimit="10" x1="45.872" y1="123.75" x2="37.037" y2="120.707"/>
			<line fill="none" stroke="#23634E" stroke-miterlimit="10" x1="51.606" y1="220.059" x2="43.239" y2="224.154"/>
			<line fill="none" stroke="#23634E" stroke-miterlimit="10" x1="123.75" y1="284.128" x2="120.707" y2="292.963"/>
			<line fill="none" stroke="#23634E" stroke-miterlimit="10" x1="220.059" y1="278.394" x2="224.154" y2="286.761"/>
			<line fill="none" stroke="#23634E" stroke-miterlimit="10" x1="284.128" y1="206.25" x2="292.963" y2="209.293"/>
			<line fill="none" stroke="#23634E" stroke-miterlimit="10" x1="278.394" y1="109.941" x2="286.761" y2="105.846"/>
			<line fill="none" stroke="#23634E" stroke-miterlimit="10" x1="206.25" y1="45.872" x2="209.293" y2="37.037"/>
			<line fill="none" stroke="#23634E" stroke-miterlimit="10" x1="82.441" y1="69.745" x2="76.356" y2="62.665"/>
			<line fill="none" stroke="#23634E" stroke-miterlimit="10" x1="39.261" y1="155.989" x2="29.957" y2="155.346"/>
			<line fill="none" stroke="#23634E" stroke-miterlimit="10" x1="69.745" y1="247.559" x2="62.665" y2="253.644"/>
			<line fill="none" stroke="#23634E" stroke-miterlimit="10" x1="155.989" y1="290.739" x2="155.346" y2="300.043"/>
			<line fill="none" stroke="#23634E" stroke-miterlimit="10" x1="247.559" y1="260.255" x2="253.644" y2="267.335"/>
			<line fill="none" stroke="#23634E" stroke-miterlimit="10" x1="290.739" y1="174.011" x2="300.043" y2="174.654"/>
			<line fill="none" stroke="#23634E" stroke-miterlimit="10" x1="260.255" y1="82.441" x2="267.335" y2="76.356"/>
			<line fill="none" stroke="#23634E" stroke-miterlimit="10" x1="174.011" y1="39.261" x2="174.654" y2="29.957"/>
		</g>
	</g>
</g>
</svg>
