<!-- Generator: Adobe Illustrator 17.1.0, SVG Export Plug-In  --><svg version="1.1"	 xmlns="http://www.w3.org/2000/svg" xmlns:xlink="http://www.w3.org/1999/xlink" xmlns:a="http://ns.adobe.com/AdobeSVGViewerExtensions/3.0/"	 x="0px" y="0px" width="37.4px" height="36.7px" viewBox="0 0 37.4 36.7" enable-background="new 0 0 37.4 36.7"	 xml:space="preserve"><defs></defs><g>	<g>		<g>			<path fill="#FFFFFF" d="M15.1,19.2l2.3-2.3l1,1l-0.6,0.6l2.1,2.1l-1.1,1.1l-2.1-2.1l-0.6,0.6L15.1,19.2z"/>			<path fill="#FFFFFF" d="M21.2,19.2l-1.2,1.2l-2-4.1l1.2-1.2l4.2,2l-1.2,1.2l-0.5-0.3l-0.8,0.8L21.2,19.2z M20.9,17.4l-0.7-0.4				c-0.2-0.1-0.3-0.2-0.5-0.3l0,0l0.7,1.1L20.9,17.4z"/>			<path fill="#FFFFFF" d="M20.2,14.1l1.1-1.1l1,1l0.7-0.7l-1-1l1.1-1.1l3.1,3.1l-1.1,1.1L24,14.3L23.3,15l1.1,1.1l-1.1,1.1				L20.2,14.1z"/>			<path fill="#FFFFFF" d="M27.8,9.6c1,1,0.9,2.3,0,3.2c-0.9,0.9-2.2,1-3.2,0c-1-1-0.9-2.3,0-3.2C25.5,8.7,26.8,8.6,27.8,9.6z				 M25.6,11.8c0.3,0.4,0.8,0.4,1.1,0c0.3-0.3,0.3-0.8,0-1.1c-0.3-0.3-0.8-0.4-1.1-0.1C25.2,11,25.3,11.5,25.6,11.8z"/>			<path fill="#FFFFFF" d="M26.2,8.1l2.1-2.1l0.8,0.8l-0.9,0.9l0.3,0.3l0.9-0.9l0.8,0.8l-0.9,0.9l0.3,0.3l1-1l0.8,0.8l-2.1,2.1				L26.2,8.1z"/>			<path fill="#FFFFFF" d="M18,0l1.3,1.4c0.7,0.7,1,1.6,0.2,2.4c-0.5,0.5-0.8,0.5-1.4,0.2l0,0c0,0.1,0,0.2,0,0.4L17.8,6l-1.3-1.3				L17,3.2l0,0l-1,1l-1.1-1.1L18,0z M17.8,2.5L17.8,2.5c0.3,0.3,0.5,0.4,0.7,0.2c0.2-0.2,0.1-0.4-0.1-0.6l-0.1-0.1L17.8,2.5z"/>			<path fill="#FFFFFF" d="M20.8,2.8l2.1,2.1L22,5.7l-0.9-0.9l-0.3,0.3l0.9,0.9l-0.8,0.8L20,5.9l-0.3,0.3l1,1L19.8,8l-2.1-2.1				L20.8,2.8z"/>			<path fill="#FFFFFF" d="M23.1,5l1.1,1.1l-0.7,2.7l0,0c0.2-0.3,0.4-0.6,0.7-0.9l0.9-0.9l1.1,1.1l-3.1,3.1L22,10.2l0.6-2.6l0,0				c-0.2,0.3-0.3,0.5-0.6,0.7l-1,1L20,8.1L23.1,5z"/>		</g>		<path fill="#FFFFFF" d="M14.5,11.1"/>		<path fill="#FFFFFF" d="M14.4,9.4"/>		<path fill="#FFFFFF" d="M20.9,14.3"/>		<path fill="#FFFFFF" d="M20.2,12.6l-5.8,5.7l-3.5-3.5l0,0c0.7-0.1,1.3-0.4,2.3-0.4c1.3,0,1.7,0.5,2.9,0.5c0.6,0,1-0.1,1.4-0.2l0,0			c0.2,0,0.3-0.2,0.3-0.3c0-0.2-0.2-0.4-0.4-0.4c0,0-0.1,0-0.1,0l0,0c-0.3,0.1-0.7,0.2-1.2,0.2c-1.2,0-1.6-0.5-2.9-0.5			s-1.9,0.5-3,0.5l0,0l-3.1-3.1l7.3-7.3l7.3,7.3L20.8,12v0c-0.6-0.1-1.1-0.3-1.9-0.3c-1.2,0-1.7,0.5-2.9,0.5s-1.6-0.5-2.9-0.5			c-1.2,0-1.7,0.4-2.6,0.5l0,0c-0.2,0-0.4,0.2-0.4,0.4c0,0.2,0.2,0.4,0.4,0.4h0c0.9-0.1,1.4-0.5,2.6-0.5c1.3,0,1.7,0.5,2.9,0.5			s1.7-0.5,2.9-0.5C19.4,12.4,19.8,12.5,20.2,12.6L20.2,12.6z M19.2,9.9l-3.7-3.7l-1.3,1.3l-0.3-0.3l0.8-0.8L14,5.7L9.7,9.9H19.2z"			/>		<path fill="#FFFFFF" d="M14.5,11.2"/>		<path fill="#FFFFFF" d="M14.4,9.4"/>		<path fill="#FFFFFF" d="M21,14.4"/>	</g>	<g>		<g>			<path fill="#FFFFFF" d="M1.6,23.7h3.1c0.8,0,1,0.4,1,1v0.2c0,0.4-0.1,0.7-0.6,0.8v0c0.3,0.1,0.6,0.2,0.6,0.7V27h-1v-0.4				c0-0.4-0.1-0.5-0.4-0.5H2.7V27h-1V23.7z M2.7,25.3h1.7c0.3,0,0.4-0.1,0.4-0.3v-0.1c0-0.3-0.1-0.4-0.5-0.4H2.7V25.3z"/>			<path fill="#FFFFFF" d="M6.1,25.7c0-0.9,0.4-1.1,1.1-1.1h0.6c0.9,0,1.3,0.2,1.3,1v0.4H7v0.1c0,0.2,0.2,0.3,0.5,0.3h0.3				c0.5,0,0.5-0.1,0.5-0.3h0.8v0.1c0,0.6-0.5,0.7-1.2,0.7H7.3c-0.6,0-1.2-0.1-1.2-1.1V25.7z M8.3,25.5c0-0.3-0.1-0.3-0.6-0.3				c-0.6,0-0.6,0.1-0.6,0.3H8.3z"/>			<path fill="#FFFFFF" d="M9.5,24.7h0.9v0.4h0c0.2-0.3,0.5-0.4,0.9-0.4c0.6,0,1.3,0,1.3,1V27h-0.9v-1.3c0-0.2-0.2-0.3-0.6-0.3H11				c-0.4,0-0.6,0.2-0.6,0.5V27H9.5V24.7z"/>			<path fill="#FFFFFF" d="M13,25.6c0-0.8,0.5-0.9,1-0.9h1.3c0.5,0,1,0.2,1,0.9v0.6c0,0.8-0.5,0.9-1,0.9H14c-0.4,0-1-0.2-1-0.9V25.6				z M13.9,26c0,0.3,0.2,0.4,0.6,0.4h0.2c0.6,0,0.7-0.1,0.7-0.4v-0.3c0-0.3-0.1-0.4-0.7-0.4h-0.2c-0.4,0-0.6,0.1-0.6,0.4V26z"/>			<path fill="#FFFFFF" d="M17,25.5h1.8v0.8H17V25.5z"/>			<path fill="#FFFFFF" d="M18.4,23.7h3.9v0.8h-1.4V27h-1v-2.5h-1.4V23.7z"/>			<path fill="#FFFFFF" d="M21.9,26.2c0-0.6,0.4-0.7,1.3-0.7c0.5,0,0.8,0,0.9,0.2v-0.2c0-0.2-0.1-0.3-0.4-0.3h-0.5				c-0.3,0-0.3,0-0.3,0.2H22c0-0.6,0.3-0.7,1.1-0.7h1c0.6,0,0.9,0.3,0.9,0.8V27h-0.8v-0.3c-0.2,0.3-0.3,0.3-0.8,0.3h-0.6				c-0.5,0-0.9-0.1-0.9-0.7V26.2z M23.5,26.5c0.6,0,0.7-0.1,0.7-0.2c0-0.2,0-0.2-0.5-0.2h-0.4c-0.4,0-0.4,0.1-0.4,0.3				c0,0.2,0.1,0.2,0.5,0.2H23.5z"/>			<path fill="#FFFFFF" d="M25.4,23.7h0.9v1.4h0c0.2-0.3,0.5-0.4,0.9-0.4c0.5,0,1.3,0,1.3,1V27h-0.9v-1.3c0-0.2-0.2-0.3-0.6-0.3				h-0.2c-0.4,0-0.6,0.2-0.6,0.5V27h-0.9V23.7z"/>			<path fill="#FFFFFF" d="M28.8,25.6c0-0.8,0.5-0.9,1-0.9h1.3c0.5,0,1,0.2,1,0.9v0.6c0,0.8-0.5,0.9-1,0.9h-1.3c-0.5,0-1-0.2-1-0.9				V25.6z M29.7,26c0,0.3,0.2,0.4,0.6,0.4h0.2c0.6,0,0.7-0.1,0.7-0.4v-0.3c0-0.3-0.1-0.4-0.7-0.4h-0.2c-0.4,0-0.6,0.1-0.6,0.4V26z"				/>			<path fill="#FFFFFF" d="M32.3,25.7c0-0.9,0.4-1.1,1.1-1.1H34c0.9,0,1.3,0.2,1.3,1v0.4h-2.1v0.1c0,0.2,0.2,0.3,0.5,0.3H34				c0.5,0,0.5-0.1,0.5-0.3h0.8v0.1c0,0.6-0.5,0.7-1.2,0.7h-0.7c-0.6,0-1.2-0.1-1.2-1.1V25.7z M34.5,25.5c0-0.3-0.1-0.3-0.6-0.3				c-0.6,0-0.6,0.1-0.6,0.3H34.5z"/>		</g>		<g>			<path fill="#FFFFFF" d="M0,28.1h1v3.3H0V28.1z"/>			<path fill="#FFFFFF" d="M1.6,29.1h0.9v0.4h0c0.2-0.3,0.5-0.4,0.9-0.4c0.5,0,1.3,0,1.3,1v1.4H3.8v-1.4c0-0.2-0.2-0.3-0.6-0.3H3.1				c-0.4,0-0.6,0.2-0.6,0.5v1.2H1.6V29.1z"/>			<path fill="#FFFFFF" d="M5.4,29.8H5v-0.6h0.4v-0.6h0.9v0.6h1.4v0.6H6.3v0.9c0,0.2,0.1,0.2,0.3,0.2c0.3,0,0.4-0.1,0.4-0.3v-0.2				h0.8v0.3c0,0.4-0.3,0.8-1,0.8H6.4c-0.5,0-1-0.2-1-0.8V29.8z"/>			<path fill="#FFFFFF" d="M8,30.2c0-0.9,0.4-1.1,1.1-1.1h0.6c0.9,0,1.3,0.2,1.3,1v0.4H8.9v0.1c0,0.2,0.2,0.3,0.5,0.3h0.3				c0.5,0,0.5-0.1,0.5-0.3h0.8v0.1c0,0.6-0.5,0.7-1.2,0.7H9.2c-0.6,0-1.2-0.1-1.2-1.1V30.2z M10.2,30c0-0.3-0.1-0.3-0.6-0.3				c-0.6,0-0.6,0.1-0.6,0.3H10.2z"/>			<path fill="#FFFFFF" d="M11.4,29.1h0.8v0.4h0c0.1-0.4,0.5-0.5,0.9-0.5c0.6,0,0.9,0.3,0.9,0.9c0,0.1,0,0.1,0,0.2h-0.8				c0-0.3-0.1-0.4-0.4-0.4c-0.3,0-0.5,0.1-0.5,0.4v1.3h-0.9V29.1z"/>			<path fill="#FFFFFF" d="M14.4,29.1h0.9v0.4h0c0.2-0.3,0.5-0.4,0.9-0.4c0.6,0,1.3,0,1.3,1v1.4h-0.9v-1.4c0-0.2-0.2-0.3-0.6-0.3				h-0.2c-0.4,0-0.6,0.2-0.6,0.5v1.2h-0.9V29.1z"/>			<path fill="#FFFFFF" d="M17.9,30.6c0-0.6,0.4-0.7,1.3-0.7c0.5,0,0.8,0,0.9,0.2v-0.2c0-0.2-0.1-0.3-0.4-0.3h-0.5				c-0.3,0-0.3,0-0.3,0.2H18c0-0.6,0.3-0.7,1.1-0.7h1c0.6,0,0.9,0.3,0.9,0.8v1.5h-0.8v-0.3c-0.2,0.3-0.3,0.3-0.8,0.3h-0.6				c-0.5,0-0.9-0.1-0.9-0.7V30.6z M19.5,31c0.6,0,0.7-0.1,0.7-0.2c0-0.2-0.1-0.2-0.5-0.2h-0.4c-0.4,0-0.4,0.1-0.4,0.3				c0,0.2,0.1,0.2,0.5,0.2H19.5z"/>			<path fill="#FFFFFF" d="M21.6,29.8h-0.4v-0.6h0.4v-0.6h0.9v0.6h1.4v0.6h-1.4v0.9c0,0.2,0.1,0.2,0.3,0.2c0.3,0,0.4-0.1,0.4-0.3				v-0.2H24v0.3c0,0.4-0.3,0.8-1,0.8h-0.3c-0.5,0-1-0.2-1-0.8V29.8z"/>			<path fill="#FFFFFF" d="M25.3,28.8h-0.9v-0.7h0.9V28.8z M25.3,31.5h-0.9v-2.4h0.9V31.5z"/>			<path fill="#FFFFFF" d="M25.8,30c0-0.8,0.5-0.9,1-0.9h1.3c0.5,0,1,0.2,1,0.9v0.6c0,0.8-0.5,0.9-1,0.9h-1.3c-0.5,0-1-0.2-1-0.9V30				z M26.7,30.4c0,0.3,0.2,0.4,0.6,0.4h0.2c0.6,0,0.7-0.1,0.7-0.4v-0.3c0-0.3-0.1-0.4-0.7-0.4h-0.2c-0.4,0-0.6,0.1-0.6,0.4V30.4z"/>			<path fill="#FFFFFF" d="M29.5,29.1h0.9v0.4h0c0.2-0.3,0.5-0.4,0.9-0.4c0.5,0,1.3,0,1.3,1v1.4h-0.9v-1.4c0-0.2-0.2-0.3-0.6-0.3H31				c-0.4,0-0.6,0.2-0.6,0.5v1.2h-0.9V29.1z"/>			<path fill="#FFFFFF" d="M33,30.6c0-0.6,0.4-0.7,1.3-0.7c0.5,0,0.8,0,0.9,0.2v-0.2c0-0.2-0.1-0.3-0.4-0.3h-0.5				c-0.3,0-0.3,0-0.3,0.2h-0.9c0-0.6,0.3-0.7,1.1-0.7h1c0.6,0,0.9,0.3,0.9,0.8v1.5h-0.8v-0.3c-0.2,0.3-0.3,0.3-0.8,0.3h-0.6				c-0.5,0-0.9-0.1-0.9-0.7V30.6z M34.5,31c0.6,0,0.7-0.1,0.7-0.2c0-0.2-0.1-0.2-0.5-0.2h-0.4c-0.4,0-0.5,0.1-0.5,0.3				c0,0.2,0.1,0.2,0.5,0.2H34.5z"/>			<path fill="#FFFFFF" d="M36.6,28.1h0.9v3.3h-0.9V28.1z"/>		</g>		<g>			<path fill="#FFFFFF" d="M9.4,32.6h1.3l1.8,3.3h-1.1l-0.3-0.6H9.1l-0.3,0.6H7.6L9.4,32.6z M9.4,34.6h1.3l-0.7-1.3L9.4,34.6z"/>			<path fill="#FFFFFF" d="M13.7,33.3h-0.9v-0.7h0.9V33.3z M13.7,35.9h-0.9v-2.4h0.9V35.9z"/>			<path fill="#FFFFFF" d="M14.2,33.5h0.8V34h0c0.1-0.4,0.5-0.5,0.9-0.5c0.6,0,0.9,0.3,0.9,0.9c0,0.1,0,0.1,0,0.2h-0.8				c0-0.3-0.1-0.4-0.4-0.4c-0.3,0-0.5,0.1-0.5,0.4v1.3h-0.9V33.5z"/>			<path fill="#FFFFFF" d="M17.2,33.5H18v0.3h0c0.1-0.2,0.3-0.4,0.8-0.4h0.3c1.1,0,1.3,0.4,1.3,1v0.4c0,0.6-0.1,1-1.3,1H19				c-0.5,0-0.7-0.1-0.9-0.4h0v1.2h-0.9V33.5z M18.1,34.8c0,0.4,0.2,0.4,0.5,0.4h0.5c0.4,0,0.5-0.1,0.5-0.4v-0.3c0-0.3,0-0.4-0.5-0.4				h-0.5c-0.4,0-0.5,0.1-0.5,0.4V34.8z"/>			<path fill="#FFFFFF" d="M20.7,34.4c0-0.8,0.5-0.9,1-0.9H23c0.5,0,1,0.2,1,0.9V35c0,0.8-0.5,0.9-1,0.9h-1.3c-0.5,0-1-0.2-1-0.9				V34.4z M21.6,34.8c0,0.3,0.2,0.4,0.6,0.4h0.2c0.6,0,0.7-0.1,0.7-0.4v-0.3c0-0.3-0.1-0.4-0.7-0.4h-0.2c-0.4,0-0.6,0.1-0.6,0.4				V34.8z"/>			<path fill="#FFFFFF" d="M24.4,33.5h0.8V34h0c0.1-0.4,0.5-0.5,0.9-0.5c0.6,0,0.9,0.3,0.9,0.9c0,0.1,0,0.1,0,0.2h-0.8				c0-0.3-0.1-0.4-0.4-0.4c-0.3,0-0.5,0.1-0.5,0.4v1.3h-0.9V33.5z"/>			<path fill="#FFFFFF" d="M27.6,34.2h-0.4v-0.6h0.4V33h0.9v0.6h1.4v0.6h-1.4v0.9c0,0.2,0.1,0.2,0.3,0.2c0.3,0,0.4-0.1,0.4-0.3v-0.2				h0.8v0.3c0,0.4-0.3,0.8-1,0.8h-0.3c-0.5,0-1-0.2-1-0.8V34.2z"/>		</g>	</g></g></svg>