<?xml version="1.0" encoding="utf-8"?>
<!-- Generator: Adobe Illustrator 17.0.0, SVG Export Plug-In . SVG Version: 6.00 Build 0)  -->
<!DOCTYPE svg PUBLIC "-//W3C//DTD SVG 1.1//EN" "http://www.w3.org/Graphics/SVG/1.1/DTD/svg11.dtd">
<svg version="1.1" id="Layer_1" xmlns="http://www.w3.org/2000/svg" xmlns:xlink="http://www.w3.org/1999/xlink" x="0px" y="0px"
	 width="308px" height="90.667px" viewBox="0 0 308 90.667" enable-background="new 0 0 308 90.667" xml:space="preserve">
<g>
	<path d="M4.247,3.199c0-0.48,0.384-0.912,0.912-0.912h19.867c0.528,0,0.911,0.432,0.911,0.912V8.43c0,0.48-0.384,0.912-0.911,0.912
		H11.733v6.911h10.941c0.48,0,0.912,0.432,0.912,0.911v5.231c0,0.48-0.432,0.911-0.912,0.911H11.733v11.661
		c0,0.48-0.432,0.912-0.912,0.912H5.158c-0.528,0-0.912-0.432-0.912-0.912L4.247,3.199L4.247,3.199z"/>
	<path d="M30.786,3.199c0-0.48,0.432-0.912,0.912-0.912H37.6c0.528,0,0.912,0.432,0.912,0.912v19.435
		c0,3.359,2.495,6.047,5.903,6.047c3.455,0,5.998-2.687,5.998-6.047V3.199c0-0.48,0.384-0.912,0.912-0.912h5.903
		c0.48,0,0.912,0.432,0.912,0.912v19.819c0,7.294-6.142,13.341-13.725,13.341c-7.534,0-13.629-6.047-13.629-13.341L30.786,3.199
		L30.786,3.199z"/>
	<path d="M65.82,2.671c0-0.48,0.432-0.864,0.912-0.864h1.2L87.08,20.234h0.048V3.199c0-0.48,0.384-0.912,0.911-0.912h5.759
		c0.48,0,0.911,0.432,0.911,0.912v32.296c0,0.48-0.432,0.864-0.911,0.864H93.03c-0.144,0-0.528-0.144-0.624-0.24L73.451,17.068
		h-0.048v17.9c0,0.48-0.384,0.912-0.912,0.912H66.78c-0.48,0-0.912-0.432-0.912-0.912L65.82,2.671z"/>
	<path d="M110.596,3.439c-0.192-0.672,0.192-1.152,0.864-1.152h5.615c0.384,0,0.768,0.336,0.864,0.672l4.127,16.268h0.192
		l7.438-16.892c0.144-0.288,0.432-0.528,0.816-0.528h0.864c0.432,0,0.72,0.24,0.816,0.528l7.438,16.892h0.192l4.127-16.268
		c0.096-0.336,0.48-0.672,0.864-0.672h5.615c0.672,0,1.056,0.48,0.864,1.152l-9.07,32.248c-0.096,0.384-0.48,0.672-0.864,0.672
		h-0.768c-0.336,0-0.672-0.24-0.816-0.528l-8.782-19.627h-0.144l-8.734,19.627c-0.144,0.288-0.48,0.528-0.816,0.528h-0.768
		c-0.384,0-0.768-0.288-0.864-0.672L110.596,3.439z"/>
	<path d="M156.428,3.199c0-0.48,0.432-0.912,0.912-0.912h5.758c0.48,0,0.912,0.432,0.912,0.912v31.768
		c0,0.48-0.432,0.912-0.912,0.912h-5.758c-0.48,0-0.912-0.432-0.912-0.912V3.199z"/>
	<path d="M176.584,9.341h-6.863c-0.528,0-0.912-0.432-0.912-0.912v-5.23c0-0.48,0.384-0.912,0.912-0.912h21.307
		c0.528,0,0.912,0.432,0.912,0.912V8.43c0,0.48-0.384,0.912-0.912,0.912h-6.863v25.626c0,0.48-0.432,0.912-0.911,0.912h-5.759
		c-0.48,0-0.911-0.432-0.911-0.912L176.584,9.341L176.584,9.341z"/>
	<path d="M196.74,3.199c0-0.48,0.432-0.912,0.912-0.912h5.711c0.528,0,0.912,0.432,0.912,0.912v12.093H218V3.199
		c0-0.48,0.384-0.912,0.911-0.912h5.711c0.48,0,0.911,0.432,0.911,0.912v31.768c0,0.48-0.432,0.912-0.911,0.912h-5.711
		c-0.528,0-0.911-0.432-0.911-0.912V22.346h-13.725v12.621c0,0.48-0.384,0.912-0.912,0.912h-5.711c-0.48,0-0.912-0.432-0.912-0.912
		L196.74,3.199L196.74,3.199z"/>
</g>
<g>
	<path d="M10.701,56.485H2.355c-0.642,0-1.109-0.525-1.109-1.109v-6.362c0-0.584,0.467-1.109,1.109-1.109H28.27
		c0.642,0,1.109,0.525,1.109,1.109v6.362c0,0.584-0.467,1.109-1.109,1.109h-8.347v31.168c0,0.584-0.525,1.109-1.109,1.109H11.81
		c-0.584,0-1.109-0.525-1.109-1.109V56.485z"/>
	<path d="M35.217,49.014c0-0.584,0.467-1.109,1.109-1.109h17.452c7.004,0,12.724,5.662,12.724,12.608
		c0,5.369-3.56,9.689-8.638,11.731l7.996,14.825c0.409,0.759,0,1.693-0.992,1.693h-7.763c-0.467,0-0.817-0.292-0.934-0.525
		L48.408,72.77h-4.027v14.884c0,0.584-0.525,1.109-1.109,1.109h-6.946c-0.642,0-1.109-0.525-1.109-1.109
		C35.217,87.654,35.217,49.014,35.217,49.014z M53.02,65.356c2.393,0,4.436-2.218,4.436-4.669s-2.043-4.436-4.436-4.436h-8.638
		v9.105H53.02z"/>
	<path d="M74.327,49.014c0-0.584,0.525-1.109,1.109-1.109h7.004c0.584,0,1.109,0.525,1.109,1.109v38.639
		c0,0.584-0.524,1.109-1.109,1.109h-7.004c-0.583,0-1.109-0.525-1.109-1.109V49.014z"/>
	<path d="M88.336,87.245l18.269-39.282c0.175-0.35,0.583-0.642,0.992-0.642h0.584c0.409,0,0.816,0.292,0.992,0.642l18.269,39.282
		c0.351,0.759-0.117,1.517-0.992,1.517h-6.479c-1.051,0-1.517-0.35-2.043-1.459l-2.102-4.611H99.951l-2.102,4.67
		c-0.292,0.7-0.934,1.401-2.102,1.401h-6.42C88.452,88.762,87.986,88.003,88.336,87.245z M112.325,74.754l-4.436-9.631h-0.059
		l-4.378,9.631H112.325z"/>
	<path d="M132.171,48.372c0-0.584,0.525-1.051,1.11-1.051h1.46l23.288,22.413h0.058v-20.72c0-0.584,0.468-1.109,1.11-1.109h7.003
		c0.584,0,1.11,0.525,1.11,1.109v39.281c0,0.584-0.525,1.051-1.11,1.051h-0.933c-0.175,0-0.642-0.175-0.76-0.292l-23.055-23.172
		h-0.058v21.771c0,0.584-0.467,1.109-1.11,1.109h-6.946c-0.583,0-1.109-0.525-1.109-1.109L132.171,48.372z"/>
	<path d="M195.386,47.38c4.903,0,10.272,2.043,14.241,5.486c0.525,0.409,0.584,1.109,0.118,1.576l-4.612,4.903
		c-0.467,0.408-1.109,0.408-1.575,0.058c-2.218-2.043-4.786-2.802-7.646-2.802c-6.362,0-11.499,5.37-11.499,11.79
		c0,6.362,5.195,11.615,11.556,11.615c1.693,0,3.444-0.233,5.195-0.934v-3.385h-3.677c-0.642,0-1.11-0.467-1.11-1.051v-5.778
		c0-0.642,0.468-1.109,1.11-1.109h11.732c0.583,0,1.05,0.525,1.05,1.109l0.059,15.701c0,0.292-0.233,0.759-0.467,0.934
		c0,0-6.012,3.794-14.475,3.794c-11.615,0-20.953-9.222-20.953-20.896C174.433,56.719,183.771,47.38,195.386,47.38z"/>
	<path d="M218.327,49.014c0-0.584,0.467-1.109,1.109-1.109h6.946c0.584,0,1.11,0.525,1.11,1.109v31.168h13.891
		c0.642,0,1.109,0.525,1.109,1.109v6.362c0,0.584-0.467,1.109-1.109,1.109h-21.946c-0.642,0-1.109-0.525-1.109-1.109V49.014H218.327
		z"/>
	<path d="M248.154,49.014c0-0.584,0.467-1.109,1.109-1.109h24.165c0.642,0,1.109,0.525,1.109,1.109v6.362
		c0,0.584-0.467,1.109-1.109,1.109H257.26v7.238h13.308c0.583,0,1.109,0.525,1.109,1.109v6.362c0,0.642-0.525,1.109-1.109,1.109
		H257.26v7.879h16.168c0.642,0,1.109,0.525,1.109,1.109v6.362c0,0.584-0.467,1.109-1.109,1.109h-24.165
		c-0.642,0-1.109-0.525-1.109-1.109V49.014z"/>
	<path d="M280.025,83.217l2.744-4.845c0.467-0.759,1.576-0.642,1.984-0.35c0.234,0.117,4.436,3.21,8.288,3.21
		c2.335,0,4.028-1.459,4.028-3.502c0-2.451-2.043-4.319-6.012-5.895c-5.021-1.984-11.324-5.895-11.324-12.899
		c0-5.778,4.495-11.615,13.483-11.615c6.07,0,10.739,3.093,12.491,4.378c0.7,0.409,0.583,1.459,0.35,1.868l-2.977,4.495
		c-0.409,0.642-1.46,1.167-1.984,0.759c-0.525-0.292-4.786-3.502-8.347-3.502c-2.101,0-3.677,1.401-3.677,2.977
		c0,2.16,1.751,3.794,6.362,5.662c4.552,1.809,11.79,5.37,11.79,13.308c0,6.011-5.195,12.082-13.775,12.082
		c-7.588,0-11.791-3.152-13.133-4.494C279.733,84.268,279.559,84.034,280.025,83.217z"/>
</g>
</svg>
