<?xml version="1.0" encoding="utf-8"?>
<!-- Generator: Adobe Illustrator 17.0.0, SVG Export Plug-In . SVG Version: 6.00 Build 0)  -->
<!DOCTYPE svg PUBLIC "-//W3C//DTD SVG 1.1//EN" "http://www.w3.org/Graphics/SVG/1.1/DTD/svg11.dtd">
<svg version="1.1" id="Layer_1" xmlns="http://www.w3.org/2000/svg" xmlns:xlink="http://www.w3.org/1999/xlink" x="0px" y="0px"
	 width="593.803px" height="42px" viewBox="0 0 593.803 42" enable-background="new 0 0 593.803 42" xml:space="preserve">
<g>
	<path d="M-0.031,1.68c0-0.584,0.467-1.109,1.109-1.109h24.164c0.642,0,1.109,0.525,1.109,1.109v6.362
		c0,0.584-0.467,1.109-1.109,1.109H9.075v8.405h13.308c0.584,0,1.109,0.525,1.109,1.109v6.362c0,0.584-0.525,1.109-1.109,1.109
		H9.075V40.32c0,0.584-0.525,1.109-1.109,1.109H1.079c-0.642,0-1.109-0.525-1.109-1.109V1.68z"/>
	<path d="M32.248,1.68c0-0.584,0.525-1.109,1.109-1.109h7.179c0.642,0,1.109,0.525,1.109,1.109v23.639
		c0,4.086,3.035,7.354,7.179,7.354c4.202,0,7.296-3.268,7.296-7.354V1.68c0-0.584,0.467-1.109,1.109-1.109h7.179
		c0.584,0,1.109,0.525,1.109,1.109v24.106c0,8.872-7.471,16.226-16.693,16.226c-9.164,0-16.576-7.354-16.576-16.226V1.68z"/>
	<path d="M74.859,1.038c0-0.584,0.525-1.051,1.109-1.051h1.459l23.289,22.413h0.058V1.68c0-0.584,0.467-1.109,1.109-1.109h7.004
		c0.584,0,1.109,0.525,1.109,1.109v39.281c0,0.584-0.525,1.051-1.109,1.051h-0.934c-0.175,0-0.642-0.175-0.759-0.292L84.14,18.549
		h-0.058V40.32c0,0.584-0.467,1.109-1.109,1.109h-6.946c-0.584,0-1.109-0.525-1.109-1.109L74.859,1.038z"/>
	<path d="M129.319,1.973c-0.233-0.817,0.234-1.401,1.051-1.401h6.829c0.467,0,0.934,0.409,1.051,0.817l5.02,19.786h0.233
		L152.55,0.63c0.175-0.35,0.525-0.642,0.992-0.642h1.051c0.525,0,0.875,0.292,0.992,0.642l9.047,20.545h0.233l5.02-19.786
		c0.117-0.409,0.584-0.817,1.051-0.817h6.829c0.817,0,1.284,0.584,1.051,1.401l-11.032,39.223c-0.117,0.467-0.584,0.817-1.051,0.817
		h-0.934c-0.409,0-0.817-0.292-0.992-0.642l-10.681-23.872h-0.175L143.328,41.37c-0.175,0.35-0.584,0.642-0.992,0.642h-0.934
		c-0.467,0-0.934-0.35-1.051-0.817L129.319,1.973z"/>
	<path d="M185.065,1.68c0-0.584,0.525-1.109,1.109-1.109h7.004c0.584,0,1.109,0.525,1.109,1.109V40.32
		c0,0.584-0.525,1.109-1.109,1.109h-7.004c-0.584,0-1.109-0.525-1.109-1.109V1.68z"/>
	<path d="M209.58,9.151h-8.347c-0.642,0-1.109-0.525-1.109-1.109V1.68c0-0.584,0.467-1.109,1.109-1.109h25.915
		c0.642,0,1.109,0.525,1.109,1.109v6.362c0,0.584-0.467,1.109-1.109,1.109h-8.347V40.32c0,0.584-0.525,1.109-1.109,1.109h-7.004
		c-0.584,0-1.109-0.525-1.109-1.109V9.151z"/>
	<path d="M234.096,1.68c0-0.584,0.525-1.109,1.109-1.109h6.946c0.642,0,1.109,0.525,1.109,1.109v14.709h16.693V1.68
		c0-0.584,0.467-1.109,1.109-1.109h6.946c0.583,0,1.109,0.525,1.109,1.109V40.32c0,0.584-0.525,1.109-1.109,1.109h-6.946
		c-0.642,0-1.109-0.525-1.109-1.109v-15.35h-16.693v15.35c0,0.584-0.467,1.109-1.109,1.109h-6.946c-0.584,0-1.109-0.525-1.109-1.109
		V1.68z"/>
	<path d="M297.31,9.151h-8.346c-0.642,0-1.109-0.525-1.109-1.109V1.68c0-0.584,0.467-1.109,1.109-1.109h25.915
		c0.642,0,1.109,0.525,1.109,1.109v6.362c0,0.584-0.467,1.109-1.109,1.109h-8.347V40.32c0,0.584-0.525,1.109-1.109,1.109h-7.004
		c-0.584,0-1.109-0.525-1.109-1.109V9.151z"/>
	<path d="M321.827,1.68c0-0.584,0.467-1.109,1.109-1.109h17.452c7.004,0,12.724,5.662,12.724,12.608
		c0,5.369-3.56,9.689-8.638,11.731l7.996,14.825c0.409,0.759,0,1.693-0.992,1.693h-7.763c-0.467,0-0.817-0.292-0.934-0.525
		l-7.763-15.467h-4.027V40.32c0,0.584-0.525,1.109-1.109,1.109h-6.946c-0.642,0-1.109-0.525-1.109-1.109V1.68z M339.629,18.023
		c2.393,0,4.436-2.218,4.436-4.669s-2.043-4.436-4.436-4.436h-8.638v9.105H339.629z"/>
	<path d="M360.936,1.68c0-0.584,0.525-1.109,1.109-1.109h7.004c0.584,0,1.109,0.525,1.109,1.109V40.32
		c0,0.584-0.524,1.109-1.109,1.109h-7.004c-0.583,0-1.109-0.525-1.109-1.109V1.68z"/>
	<path d="M374.945,39.911L393.214,0.63c0.175-0.35,0.583-0.642,0.992-0.642h0.584c0.409,0,0.816,0.292,0.992,0.642l18.269,39.282
		c0.351,0.759-0.117,1.517-0.992,1.517h-6.479c-1.051,0-1.517-0.35-2.043-1.459l-2.102-4.611H386.56l-2.102,4.67
		c-0.292,0.7-0.934,1.401-2.102,1.401h-6.42C375.062,41.429,374.595,40.67,374.945,39.911z M398.934,27.421l-4.436-9.631h-0.059
		l-4.378,9.631H398.934z"/>
	<path d="M418.78,1.038c0-0.584,0.525-1.051,1.11-1.051h1.46l23.288,22.413h0.058V1.68c0-0.584,0.468-1.109,1.11-1.109h7.003
		c0.584,0,1.11,0.525,1.11,1.109v39.281c0,0.584-0.525,1.051-1.11,1.051h-0.933c-0.175,0-0.642-0.175-0.76-0.292l-23.055-23.172
		h-0.058V40.32c0,0.584-0.467,1.109-1.11,1.109h-6.946c-0.583,0-1.109-0.525-1.109-1.109L418.78,1.038z"/>
	<path d="M481.996,0.047c4.903,0,10.272,2.043,14.241,5.486c0.525,0.409,0.584,1.109,0.118,1.576l-4.612,4.903
		c-0.467,0.408-1.109,0.408-1.575,0.058c-2.218-2.043-4.786-2.802-7.646-2.802c-6.362,0-11.499,5.37-11.499,11.79
		c0,6.362,5.195,11.615,11.556,11.615c1.693,0,3.444-0.233,5.195-0.934v-3.385h-3.677c-0.642,0-1.11-0.467-1.11-1.051v-5.778
		c0-0.642,0.468-1.109,1.11-1.109h11.732c0.583,0,1.05,0.525,1.05,1.109l0.059,15.701c0,0.292-0.233,0.759-0.467,0.934
		c0,0-6.012,3.794-14.475,3.794c-11.615,0-20.953-9.222-20.953-20.896C461.042,9.385,470.38,0.047,481.996,0.047z"/>
	<path d="M504.937,1.68c0-0.584,0.467-1.109,1.109-1.109h6.946c0.584,0,1.11,0.525,1.11,1.109v31.168h13.891
		c0.642,0,1.109,0.525,1.109,1.109v6.362c0,0.584-0.467,1.109-1.109,1.109h-21.946c-0.642,0-1.109-0.525-1.109-1.109V1.68z"/>
	<path d="M534.764,1.68c0-0.584,0.467-1.109,1.109-1.109h24.165c0.642,0,1.109,0.525,1.109,1.109v6.362
		c0,0.584-0.467,1.109-1.109,1.109h-16.168v7.238h13.308c0.583,0,1.109,0.525,1.109,1.109v6.362c0,0.642-0.525,1.109-1.109,1.109
		h-13.308v7.879h16.168c0.642,0,1.109,0.525,1.109,1.109v6.362c0,0.584-0.467,1.109-1.109,1.109h-24.165
		c-0.642,0-1.109-0.525-1.109-1.109V1.68z"/>
	<path d="M566.635,35.884l2.744-4.845c0.467-0.759,1.576-0.642,1.984-0.35c0.234,0.117,4.436,3.21,8.288,3.21
		c2.335,0,4.028-1.459,4.028-3.502c0-2.451-2.043-4.319-6.012-5.895c-5.021-1.984-11.324-5.895-11.324-12.899
		c0-5.778,4.495-11.615,13.483-11.615c6.07,0,10.739,3.093,12.491,4.378c0.7,0.409,0.583,1.46,0.35,1.868l-2.977,4.495
		c-0.409,0.642-1.46,1.167-1.984,0.759c-0.525-0.292-4.786-3.502-8.347-3.502c-2.101,0-3.677,1.401-3.677,2.977
		c0,2.16,1.751,3.794,6.362,5.662c4.552,1.809,11.79,5.37,11.79,13.308c0,6.011-5.195,12.082-13.775,12.082
		c-7.588,0-11.791-3.152-13.133-4.494C566.343,36.934,566.168,36.701,566.635,35.884z"/>
</g>
<g>
</g>
<g>
</g>
<g>
</g>
<g>
</g>
<g>
</g>
<g>
</g>
<g>
</g>
<g>
</g>
<g>
</g>
<g>
</g>
<g>
</g>
<g>
</g>
<g>
</g>
<g>
</g>
<g>
</g>
</svg>
