<!-- Generator: Adobe Illustrator 18.1.1, SVG Export Plug-In  -->
<svg version="1.1"
	 xmlns="http://www.w3.org/2000/svg" xmlns:xlink="http://www.w3.org/1999/xlink" xmlns:a="http://ns.adobe.com/AdobeSVGViewerExtensions/3.0/"
	 x="0px" y="0px" width="158.5px" height="8.9px" viewBox="0 0 158.5 8.9" enable-background="new 0 0 158.5 8.9"
	 xml:space="preserve">
<defs>
</defs>
<g>
	<path fill="#FFFFFF" d="M0,5.1C0,2.4,2.2,0,5.5,0C7.2,0,8.4,0.7,9,1.4L7.4,3C6.9,2.5,6.2,2.1,5.3,2.1C3.6,2.1,2.4,3.4,2.4,5
		c0,1.2,0.9,1.8,1.9,1.8c0.5,0,0.8-0.1,1.1-0.2l0.3-1.1H4.1l0.5-1.7h3.9L7.3,8C6.4,8.5,5.4,8.9,4.1,8.9C2.1,8.9,0,7.7,0,5.1z"/>
	<path fill="#FFFFFF" d="M13.2,0.1h2.3l1.3,8.6h-2.5l-0.2-1.5h-3.3l-1,1.5H7.3L13.2,0.1z M13.9,5.3l-0.3-2.4L12,5.3H13.9z"/>
	<path fill="#FFFFFF" d="M19.6,2.2h-2.6l0.6-2.1h7.5l-0.5,2.1H22l-1.7,6.4h-2.4L19.6,2.2z"/>
	<path fill="#FFFFFF" d="M24.8,0.2h2.4l0.2,4.9l2.9-4.9h2l0.3,4.9l2.8-4.9h2.6L33,8.7h-2.1l-0.4-4.8l-3,4.8h-2.1L24.8,0.2z"/>
	<path fill="#FFFFFF" d="M38.5,0.2h2.4l-2.3,8.5h-2.4L38.5,0.2z"/>
	<path fill="#FFFFFF" d="M40.4,5.1c0-2.5,2-5.1,5.3-5.1c1.7,0,2.9,0.8,3.5,2.2l-2,1.1c-0.3-0.7-0.9-1.1-1.7-1.1
		c-1.4,0-2.5,1.3-2.5,2.8c0,1.1,0.7,1.8,1.7,1.8c0.7,0,1.3-0.3,1.8-0.9L48,7.3c-0.8,0.9-1.9,1.6-3.6,1.6C42.1,8.9,40.4,7.4,40.4,5.1
		z"/>
	<path fill="#FFFFFF" d="M50.3,0.2h2.4l-0.9,3.4l3.5-3.4h3l-4,3.7l1.9,4.8h-2.6l-1.2-3.3l-1.5,1.4l-0.5,1.9H48L50.3,0.2z"/>
	<path fill="#FFFFFF" d="M62.9,2.2h-2.6l0.6-2.1h7.5l-0.5,2.1h-2.6l-1.7,6.4h-2.4L62.9,2.2z"/>
	<path fill="#FFFFFF" d="M67.3,5c0-2.6,2.1-5,5.1-5c2.4,0,4.1,1.7,4.1,3.8c0,2.6-2.1,5-5.1,5C68.9,8.8,67.3,7.2,67.3,5z M74,4
		c0-1.1-0.7-1.9-1.9-1.9c-1.5,0-2.5,1.4-2.5,2.7c0,1.1,0.7,1.9,1.9,1.9C73,6.7,74,5.3,74,4z"/>
	<path fill="#FFFFFF" d="M81,0.2h3.2c1.4,0,2.4,0.3,2.9,0.9c0.5,0.5,0.7,1.1,0.7,1.7c0,1.4-0.8,2.5-2.6,3l1.3,2.9H84l-1.1-2.6h-1
		l-0.7,2.6h-2.4L81,0.2z M83.7,4.3c1.1,0,1.8-0.5,1.8-1.2c0-0.2-0.1-0.4-0.2-0.6c-0.2-0.2-0.5-0.3-1-0.3h-1.3l-0.6,2H83.7z"/>
	<path fill="#FFFFFF" d="M89.3,0.2h6.8l-0.5,2h-4.5l-0.4,1.3h4.1l-0.5,1.9h-4.1l-0.4,1.3h4.5l-0.5,2H87L89.3,0.2z"/>
	<path fill="#FFFFFF" d="M97,0.2h2.2l2.2,4.7l1.3-4.7h2.3l-2.3,8.5h-2.1l-2.3-4.9L97,8.7h-2.3L97,0.2z"/>
	<path fill="#FFFFFF" d="M104.5,5c0-2.6,2.1-5,5.1-5c2.4,0,4.1,1.7,4.1,3.8c0,2.6-2.1,5-5.1,5C106.1,8.8,104.5,7.2,104.5,5z
		 M111.2,4c0-1.1-0.7-1.9-1.9-1.9c-1.5,0-2.5,1.4-2.5,2.7c0,1.1,0.7,1.9,1.9,1.9C110.2,6.7,111.2,5.3,111.2,4z"/>
	<path fill="#FFFFFF" d="M119.7,2.2h-2.6l0.6-2.1h7.5l-0.5,2.1H122l-1.7,6.4h-2.4L119.7,2.2z"/>
	<path fill="#FFFFFF" d="M127.5,0.1h2.3l1.3,8.6h-2.5l-0.2-1.5h-3.3l-1,1.5h-2.6L127.5,0.1z M128.3,5.3L128,2.9l-1.6,2.4H128.3z"/>
	<path fill="#FFFFFF" d="M133.6,0.2h2.4l-0.9,3.2h3l0.8-3.2h2.4L139,8.7h-2.4l0.9-3.2h-3l-0.9,3.2h-2.4L133.6,0.2z"/>
	<path fill="#FFFFFF" d="M140.8,5c0-2.6,2.1-5,5.1-5c2.4,0,4.1,1.7,4.1,3.8c0,2.6-2.1,5-5.1,5C142.4,8.8,140.8,7.2,140.8,5z
		 M147.5,4c0-1.1-0.7-1.9-1.9-1.9c-1.5,0-2.5,1.4-2.5,2.7c0,1.1,0.7,1.9,1.9,1.9C146.5,6.7,147.5,5.3,147.5,4z"/>
	<path fill="#FFFFFF" d="M151.7,0.2h6.8l-0.5,2h-4.5l-0.4,1.3h4.1l-0.5,1.9h-4.1l-0.4,1.3h4.5l-0.5,2h-6.9L151.7,0.2z"/>
</g>
</svg>
