<?xml version="1.0" encoding="utf-8"?>
<!-- Generator: Adobe Illustrator 17.1.0, SVG Export Plug-In . SVG Version: 6.00 Build 0)  -->
<!DOCTYPE svg PUBLIC "-//W3C//DTD SVG 1.1//EN" "http://www.w3.org/Graphics/SVG/1.1/DTD/svg11.dtd">
<svg version="1.1" id="Layer_1" xmlns="http://www.w3.org/2000/svg" xmlns:xlink="http://www.w3.org/1999/xlink" x="0px" y="0px"
	 width="41.7px" height="25.7px" viewBox="0 0 41.7 25.7" enable-background="new 0 0 41.7 25.7" xml:space="preserve">
<g>
	<g id="ZayC8g_1_">
		
			<linearGradient id="SVGID_1_" gradientUnits="userSpaceOnUse" x1="-17.9174" y1="286.3348" x2="22.1867" y2="286.3348" gradientTransform="matrix(0.9438 0.3305 0.3305 -0.9438 -77.8647 281.6928)">
			<stop  offset="0" style="stop-color:#5F92CD"/>
			<stop  offset="0.1803" style="stop-color:#538BC9"/>
			<stop  offset="0.7093" style="stop-color:#2E7ABE"/>
			<stop  offset="1" style="stop-color:#1874BB"/>
		</linearGradient>
		<path fill="url(#SVGID_1_)" d="M19.7,13.2c-1.2,0.2-2.3,0.5-3.4,0.7c-2.7,0.5-5.5,1-8.2,1c-1.4,0-2.9,0-4.2-0.4
			C3.4,14.4,3,14.2,2.6,14c-0.5-0.3-0.9-0.7-1-1.3c-0.5-2.3-1-4.7-1.5-7C0,5.1,0.2,4.7,0.9,4.6s1.4,0.1,1.9,0.7
			c0.9,1.1,1.9,2.1,2.8,3.2C6.1,9,6.7,9.2,7.5,9c8.4-1.7,16.9-3.4,25.3-5.1c1.9-0.4,3.9-0.4,5.7,0.3c1,0.4,1.8,0.9,2.5,1.7
			c0.1,0.2,0.3,0.3,0.4,0.5c0.4,0.7,0.4,1.1-0.4,1.4c-1.1,0.5-2.2,0.9-3.4,1.3c-2.9,0.8-5.9,1.5-8.9,2.2c-0.3,0.1-0.5,0.2-0.7,0.4
			c-2.9,3.9-5.9,7.7-8.8,11.5c-0.4,0.6-1,1.1-1.5,1.5c-0.8,0.7-1.7,0.8-2.7,0.9c-0.3,0.1-0.5-0.1-0.4-0.5c0.2-0.6,0.4-1.2,0.6-1.7
			c1.4-3.3,2.8-6.7,4.2-10C19.7,13.4,19.7,13.3,19.7,13.2z"/>
		
			<linearGradient id="SVGID_2_" gradientUnits="userSpaceOnUse" x1="-10.6314" y1="293.2362" x2="2.7147" y2="293.2362" gradientTransform="matrix(0.9438 0.3305 0.3305 -0.9438 -77.8647 281.6928)">
			<stop  offset="0" style="stop-color:#5F92CD"/>
			<stop  offset="0.1803" style="stop-color:#538BC9"/>
			<stop  offset="0.7093" style="stop-color:#2E7ABE"/>
			<stop  offset="1" style="stop-color:#1874BB"/>
		</linearGradient>
		<path fill="url(#SVGID_2_)" d="M21.9,5.1c-0.6,0.1-1.1,0.2-1.7,0.3c-1.5,0.3-2.9,0.6-4.4,0.9c-0.2,0-0.4,0-0.5-0.1
			c-1.5-1.4-3.9-3.4-5.4-4.8C9.8,1.3,9.7,1.2,9.6,1.1C9.1,0.6,9.2,0.4,9.9,0.2c1.7-0.5,3.2-0.1,4.7,0.7C16.6,2.1,21.7,5,21.9,5.1z"
			/>
	</g>
</g>
<g>
	<path fill="#FFFFFF" d="M10,9.4l1.7-0.3c1.4-0.3,2.5,0.5,2.8,1.7l0,0c0.2,1.2-0.5,2.4-1.9,2.6l-1.7,0.3L10,9.4z M12.4,12.6
		c0.8-0.2,1.2-0.8,1.1-1.6l0,0c-0.2-0.8-0.8-1.2-1.6-1.1l-0.7,0.1l0.5,2.6L12.4,12.6z"/>
	<path fill="#FFFFFF" d="M14.9,8.4l1-0.2l0.9,4.4l-1,0.2L14.9,8.4z"/>
	<path fill="#FFFFFF" d="M16.9,8l2-0.4c0.6-0.1,1,0,1.4,0.2c0.3,0.2,0.5,0.5,0.6,0.9l0,0c0.1,0.7-0.2,1.2-0.7,1.5l1.4,1.3l-1.1,0.2
		l-1.2-1.2l-0.8,0.2l0.3,1.4l-1,0.2L16.9,8z M19.3,9.8C19.8,9.7,20,9.4,19.9,9l0,0c-0.1-0.4-0.4-0.6-0.9-0.5l-1,0.2l0.3,1.3
		L19.3,9.8z"/>
	<path fill="#FFFFFF" d="M21.4,7.1l3.3-0.7l0.2,0.9l-2.3,0.5l0.2,0.9l2.1-0.4L25,9.1l-2.1,0.4l0.2,0.9l2.4-0.5l0.2,0.9l-3.3,0.7
		L21.4,7.1z"/>
	<path fill="#FFFFFF" d="M25.9,8.5L25.9,8.5c-0.3-1.3,0.5-2.5,1.8-2.7c0.8-0.2,1.4,0,1.9,0.3L29.1,7c-0.4-0.2-0.8-0.4-1.2-0.3
		c-0.7,0.1-1.1,0.9-1,1.6l0,0c0.1,0.7,0.8,1.3,1.5,1.1c0.5-0.1,0.8-0.4,1-0.7l0.7,0.5c-0.4,0.6-0.8,1-1.6,1.1
		C27.3,10.6,26.1,9.8,25.9,8.5z"/>
	<path fill="#FFFFFF" d="M31.4,6.1l-1.3,0.3l-0.2-0.9l3.6-0.7l0.2,0.9l-1.3,0.3l0.7,3.5l-1,0.2L31.4,6.1z"/>
</g>
</svg>
