<!-- Generator: Adobe Illustrator 17.1.0, SVG Export Plug-In  --><svg version="1.1"	 xmlns="http://www.w3.org/2000/svg" xmlns:xlink="http://www.w3.org/1999/xlink" xmlns:a="http://ns.adobe.com/AdobeSVGViewerExtensions/3.0/"	 x="0px" y="0px" width="172.2px" height="85px" viewBox="0 0 172.2 85" enable-background="new 0 0 172.2 85" xml:space="preserve"	><defs></defs><linearGradient id="SVGID_1_" gradientUnits="userSpaceOnUse" x1="7.4496" y1="54.4444" x2="36.0047" y2="54.4444">	<stop  offset="0" style="stop-color:#D68428"/>	<stop  offset="0.1849" style="stop-color:#D68B29"/>	<stop  offset="0.5227" style="stop-color:#D6A12C"/>	<stop  offset="0.9726" style="stop-color:#D7C433"/>	<stop  offset="1" style="stop-color:#D7C634"/></linearGradient><path fill="url(#SVGID_1_)" d="M0.4,75l3.4-2.7l0.4-8.1l-3.4,0.3l0.5-11.3l3.4-0.4l0.1-1.7c0.2-7.6,1.2-13.2,3.2-17.8	c2.1-4.9,5.5-8.1,10.6-9.2c4.8-1,9.9,1.5,12.5,5.6l-6.4,14.6c-1.5-2-3-3-4.7-2.8c-1.3,0.2-2.3,1.2-2.9,2.6c-0.6,1.2-0.9,3.1-1.1,5.4	l-0.1,2l9.7-1.2l-0.9,12.2l-9.6,0.8l-0.4,7.4L26.7,70l-1.1,14.6L0,85L0.4,75z"/><linearGradient id="SVGID_2_" gradientUnits="userSpaceOnUse" x1="36.5525" y1="49.6429" x2="68.3685" y2="49.6429">	<stop  offset="0" style="stop-color:#D68428"/>	<stop  offset="0.1849" style="stop-color:#D68B29"/>	<stop  offset="0.5227" style="stop-color:#D6A12C"/>	<stop  offset="0.9726" style="stop-color:#D7C433"/>	<stop  offset="1" style="stop-color:#D7C634"/></linearGradient><path fill="url(#SVGID_2_)" d="M28.5,73.7l6.9-11.9c2.5,4.1,5.4,6.3,8.7,6.1c3.7-0.2,5.8-3.4,5.5-6.5c-0.2-2.6-1.4-4.1-5.2-3.7	l-5.1,0.5l-0.9-9.3l10-12.7l-15,2.3l1.3-17.2l33.4-6.8l-2,16.8L54,45.5c5.7,1.9,9.2,7.6,9.6,14.8c1,15.4-6.3,24.4-17.8,24.6	C38.8,84.9,32.8,81.3,28.5,73.7z"/><linearGradient id="SVGID_3_" gradientUnits="userSpaceOnUse" x1="68.361" y1="47.7292" x2="109.1104" y2="47.7292">	<stop  offset="0" style="stop-color:#D68428"/>	<stop  offset="0.1849" style="stop-color:#D68B29"/>	<stop  offset="0.5227" style="stop-color:#D6A12C"/>	<stop  offset="0.9726" style="stop-color:#D7C433"/>	<stop  offset="1" style="stop-color:#D7C634"/></linearGradient><path fill="url(#SVGID_3_)" d="M62.9,78.4l5.9-15.1c2.6,2.7,6.4,4.7,9.5,4.5c3.8-0.2,7.2-2.5,9.6-6.1c1.3-2,2.4-4.5,3.1-7.2	c-2.9,3.2-6.7,5.6-11.4,6c-7.1,0.5-13.4-5.4-14.2-16.4c-1-16.1,8-30.3,20.8-32.8c6.9-1.4,12.9,0.5,17.1,5c4.1,4.5,6.6,11.2,6.8,19.5	c0.4,12.8-2.9,27.2-9.9,36.9c-5.1,7.1-12.1,11.9-21.2,12C72.6,84.7,67,82.6,62.9,78.4z M92.5,34.3c-0.1-1.9-0.6-3.5-1.5-4.5	c-0.9-1-2.3-1.6-3.8-1.4c-3.9,0.6-6.4,6-6.1,11.2c0.2,3.6,2.2,6.2,5.1,5.8C90.2,45,92.8,39.7,92.5,34.3z"/><linearGradient id="SVGID_4_" gradientUnits="userSpaceOnUse" x1="117.0897" y1="42.4757" x2="165.3751" y2="42.4757">	<stop  offset="0" style="stop-color:#D68428"/>	<stop  offset="0.1849" style="stop-color:#D68B29"/>	<stop  offset="0.5227" style="stop-color:#D6A12C"/>	<stop  offset="0.9726" style="stop-color:#D7C433"/>	<stop  offset="1" style="stop-color:#D7C634"/></linearGradient><path fill="url(#SVGID_4_)" d="M106.6,77.9l8-17.2c3.2,3.1,7.8,5.3,11.8,5.1c4.8-0.3,9.2-2.9,12.5-7c1.8-2.3,3.3-5.1,4.3-8.3	c-3.8,3.8-8.7,6.5-14.8,7c-8.9,0.7-16.7-6-17.1-18.6c-0.6-18.4,11.5-34.9,27.8-38.2c8.9-1.8,16.5,0.2,21.6,5.4	c5.1,5.1,7.9,12.9,7.9,22.5c-0.1,14.9-5.1,31.5-14.5,42.7c-6.8,8.1-16,13.6-27.5,13.8C118.4,85.1,111.5,82.6,106.6,77.9z	 M145.9,27.1c0-2.2-0.6-4-1.7-5.2c-1.1-1.2-2.8-1.9-4.8-1.5c-5,0.8-8.4,7-8.3,13c0.1,4.1,2.6,7.1,6.3,6.6	C142.4,39.6,146,33.3,145.9,27.1z"/><g>	<path fill="#BD892C" d="M154.9,73.1h3.4c1.9,0,3,0.4,3.8,1.1c0.5,0.5,0.8,1.2,0.8,2c0,2.5-1.9,4.1-5.1,4.1h-1.4l-0.7,2.7h-3.4		L154.9,73.1z M157.5,78c1.3,0,1.9-0.6,1.9-1.3c0-0.2-0.1-0.4-0.2-0.6c-0.2-0.2-0.6-0.3-1-0.3h-0.6l-0.6,2.2H157.5z"/>	<path fill="#BD892C" d="M164.2,73.1h3.4c1.9,0,3,0.4,3.8,1.1c0.5,0.5,0.8,1.2,0.8,2c0,2.5-1.9,4.1-5.1,4.1h-1.4l-0.7,2.7h-3.4		L164.2,73.1z M166.9,78c1.3,0,1.9-0.6,1.9-1.3c0-0.2-0.1-0.4-0.2-0.6c-0.2-0.2-0.6-0.3-1-0.3h-0.6l-0.6,2.2H166.9z"/></g></svg>