<!-- Generator: Adobe Illustrator 17.1.0, SVG Export Plug-In  --><svg version="1.1"	 xmlns="http://www.w3.org/2000/svg" xmlns:xlink="http://www.w3.org/1999/xlink" xmlns:a="http://ns.adobe.com/AdobeSVGViewerExtensions/3.0/"	 x="0px" y="0px" width="171.6px" height="104.7px" viewBox="0 0 171.6 104.7" enable-background="new 0 0 171.6 104.7"	 xml:space="preserve"><defs></defs><g>	<path fill="#FFFFFF" d="M9.2,0.2h37.7l-2.2,13.1l-22.2,0.6l-1.1,6.2l20.8-0.8l-2,12.2l-21,1.3L16.4,49L0,50.5L9.2,0.2z"/>	<path fill="#FFFFFF" d="M49.5,0.2h13.4l-5,31.9L75.5,31l-1.9,12.6l-31.7,3L49.5,0.2z"/>	<path fill="#FFFFFF" d="M78.5,26.7L69,0.2h13l4,14l7.9-14H107L90.2,27.7l-2.1,14.4l-12.1,1.1L78.5,26.7z"/>	<path fill="#FFFFFF" d="M124.6,11.2l-9,0.2L117,0.2h26.7l-1.2,10.5l-8.2,0.2l-3.4,27.5l-10,0.9L124.6,11.2z"/>	<path fill="#FFFFFF" d="M141.8,21.5C140.9,10.1,147,0,155.7,0c7.3,0,12.8,6.7,13.4,15.4C170,26,164.7,36,156.3,36.8		C148.6,37.5,142.6,30.8,141.8,21.5z M161.1,16.8c-0.3-3.7-2.1-6.5-5.2-6.4c-3.6,0.1-5.6,5.1-5.2,9.5c0.3,3.8,2.2,6.6,5.3,6.4		C159.6,26.1,161.5,21.2,161.1,16.8z"/>	<path fill="#FFFFFF" d="M15.6,67.7L1,69.6l2.7-14.7l42.8-4.4l-2.2,13.5l-13,1.7l-6.1,35.9l-16.1,3.2L15.6,67.7z"/>	<path fill="#FFFFFF" d="M54.4,49.3L67.7,48l9.4,43.2L63.3,94l-1.2-5.9l-14.5,2.7l-3.2,7L28.1,101L54.4,49.3z M60.5,77.6l-2-10.8		l-5.5,12L60.5,77.6z"/>	<path fill="#FFFFFF" d="M83.4,46.7l11.8-1.2l-2.1,15.1l10.4-1.4l2-14.7l10.7-1.1l-5.3,41.2l-11.1,2.2l2.1-15.3l-10.5,1.7l-2.2,15.7		l-12.3,2.4L83.4,46.7z"/>	<path fill="#FFFFFF" d="M115.5,66.1c-1-12.3,6-24.1,16-25.1c8.4-0.8,14.5,5.8,15.2,15.2c0.9,11.4-5.2,22.9-14.8,24.8		C123.2,82.9,116.3,76.3,115.5,66.1z M137.5,58.7c-0.3-4-2.4-6.9-5.8-6.4c-4.1,0.5-6.4,6.2-6,11.1c0.3,4.1,2.5,7,6,6.4		C135.8,69,137.9,63.4,137.5,58.7z"/>	<path fill="#FFFFFF" d="M150.4,39.8l21.2-2.2l-1,9.6l-12.9,1.7l-0.4,3.7l12-1.7l-0.9,8.6l-12.1,2l-0.5,4l13.2-2.3l-1,9.8l-22,4.4		L150.4,39.8z"/></g></svg>